<svg width="17" height="20" viewBox="0 0 17 20" fill="none" xmlns="http://www.w3.org/2000/svg">
<g id="doc.text" clip-path="url(#clip0_275_1511)">
<g id="Group">
<path id="Vector" d="M12.223 11.2447H5.14611C4.97828 11.2447 4.83842 11.2991 4.72654 11.4079C4.61465 11.5166 4.55871 11.6518 4.55871 11.8135C4.55871 11.9751 4.61465 12.1119 4.72654 12.2237C4.83842 12.3356 4.97828 12.3916 5.14611 12.3916H12.223C12.3846 12.3916 12.5198 12.3356 12.6286 12.2237C12.7374 12.1119 12.7917 11.9751 12.7917 11.8135C12.7917 11.6518 12.7374 11.5166 12.6286 11.4079C12.5198 11.2991 12.3846 11.2447 12.223 11.2447ZM12.223 14.4988H5.14611C4.97828 14.4988 4.83842 14.5547 4.72654 14.6666C4.61465 14.7785 4.55871 14.9184 4.55871 15.0862C4.55871 15.2416 4.61465 15.3737 4.72654 15.4825C4.83842 15.5913 4.97828 15.6456 5.14611 15.6456H12.223C12.3846 15.6456 12.5198 15.5913 12.6286 15.4825C12.7374 15.3737 12.7917 15.2416 12.7917 15.0862C12.7917 14.9184 12.7374 14.7785 12.6286 14.6666C12.5198 14.5547 12.3846 14.4988 12.223 14.4988ZM3.84075 19.9906H13.7428C14.7063 19.9906 15.4289 19.7467 15.9106 19.2587C16.3924 18.7708 16.6333 18.0419 16.6333 17.0723V8.60604C16.6333 8.20201 16.6115 7.86324 16.568 7.58973C16.5245 7.31623 16.4391 7.06603 16.3116 6.83915C16.1842 6.61227 15.9961 6.3714 15.7475 6.11654L10.61 0.885779C10.3738 0.643355 10.1438 0.45843 9.92 0.331002C9.69622 0.203574 9.45225 0.11655 9.18807 0.06993C8.92389 0.02331 8.61775 0 8.26966 0H3.84075C2.87727 0 2.15467 0.245532 1.67293 0.736595C1.19119 1.22766 0.950317 1.95804 0.950317 2.92774V17.0723C0.950317 18.0482 1.19119 18.7786 1.67293 19.2634C2.15467 19.7482 2.87727 19.9906 3.84075 19.9906ZM3.90602 18.4894C3.42739 18.4894 3.06531 18.3651 2.81978 18.1165C2.57425 17.8679 2.45148 17.5105 2.45148 17.0443V2.9557C2.45148 2.49572 2.57425 2.13831 2.81978 1.88345C3.06531 1.62859 3.4305 1.50117 3.91535 1.50117H8.06452V6.9184C8.06452 7.5027 8.2106 7.94093 8.50276 8.23309C8.7949 8.52524 9.23313 8.67131 9.81744 8.67131H15.1321V17.0443C15.1321 17.5105 15.0093 17.8679 14.7638 18.1165C14.5183 18.3651 14.1531 18.4894 13.6682 18.4894H3.90602ZM9.98527 7.26339C9.79879 7.26339 9.6667 7.22299 9.589 7.14218C9.5113 7.06137 9.47245 6.92773 9.47245 6.74125V1.79021L14.8431 7.26339H9.98527Z" fill="#312E28"/>
</g>
</g>
<defs>
<clipPath id="clip0_275_1511">
<rect width="15.683" height="20" fill="white" transform="translate(0.950317)"/>
</clipPath>
</defs>
</svg>
