<svg width="157" height="17" viewBox="0 0 157 17" fill="none" xmlns="http://www.w3.org/2000/svg">
<path d="M9.72532 15.025C9.60865 15.025 9.50032 15.0083 9.40032 14.975C9.08365 14.9083 8.85865 14.7167 8.72532 14.4C8.62532 14.1167 8.65032 13.8 8.80032 13.45C8.96698 13.1 9.18365 12.7083 9.45032 12.275C9.55032 12.125 9.64198 11.975 9.72532 11.825C9.82532 11.6583 9.90865 11.5083 9.97532 11.375C10.0087 11.325 10.0337 11.2833 10.0503 11.25C10.067 11.2 10.0837 11.1583 10.1003 11.125C9.60032 11.0417 9.01698 11.025 8.35032 11.075C7.70032 11.1083 6.96698 11.2333 6.15032 11.45C5.43365 11.6333 4.65865 11.875 3.82532 12.175C3.00865 12.4583 2.14198 12.8 1.22532 13.2C1.04198 13.2667 0.858651 13.2667 0.675317 13.2C0.491984 13.1333 0.358651 13.0083 0.275317 12.825C0.175317 12.6417 0.166984 12.45 0.250317 12.25C0.333651 12.0333 0.466984 11.8917 0.650317 11.825C1.58365 11.4083 2.47532 11.05 3.32532 10.75C4.19198 10.4333 5.00865 10.1833 5.77532 10C7.82532 9.48333 9.50032 9.4 10.8003 9.75C11.1837 9.85 11.4503 10.0833 11.6003 10.45C11.7503 10.8167 11.717 11.225 11.5003 11.675C11.2837 12.125 11.0253 12.5917 10.7253 13.075C10.7087 13.1083 10.6837 13.15 10.6503 13.2C10.617 13.25 10.5837 13.3083 10.5503 13.375C10.9337 13.2917 11.5003 13.125 12.2503 12.875C13.0003 12.625 14.0337 12.2583 15.3503 11.775C15.5337 11.7083 15.717 11.725 15.9003 11.825C16.1003 11.9083 16.2337 12.05 16.3003 12.25C16.3837 12.4333 16.3837 12.625 16.3003 12.825C16.217 13.0083 16.067 13.1417 15.8503 13.225C15.0837 13.4917 14.3837 13.7333 13.7503 13.95C13.117 14.1667 12.5503 14.35 12.0503 14.5C11.3837 14.7 10.8753 14.8417 10.5253 14.925C10.1753 14.9917 9.90865 15.025 9.72532 15.025ZM17.872 16.7C17.7553 16.7 17.6387 16.6833 17.522 16.65C17.4053 16.6333 17.2887 16.6167 17.172 16.6C16.872 16.5167 16.6637 16.3417 16.547 16.075C16.397 15.7417 16.397 15.3417 16.547 14.875C16.7137 14.3917 16.9803 13.775 17.347 13.025C17.4137 12.8917 17.4803 12.7417 17.547 12.575C17.6303 12.4083 17.7053 12.25 17.772 12.1C17.5553 12.1833 17.322 12.325 17.072 12.525C16.8387 12.7083 16.597 12.9 16.347 13.1C16.1803 13.2167 15.997 13.2667 15.797 13.25C15.5803 13.2167 15.4053 13.125 15.272 12.975C15.1553 12.8083 15.1137 12.625 15.147 12.425C15.1637 12.225 15.247 12.05 15.397 11.9C15.6303 11.7333 15.872 11.55 16.122 11.35C16.3887 11.15 16.6553 10.9833 16.922 10.85C17.6053 10.5 18.2303 10.4083 18.797 10.575C19.0637 10.625 19.2637 10.7917 19.397 11.075C19.5303 11.3417 19.522 11.675 19.372 12.075C19.2387 12.475 19.0053 13.0167 18.672 13.7C18.5887 13.9 18.497 14.1 18.397 14.3C18.3137 14.5 18.2303 14.6917 18.147 14.875C18.1303 14.9417 18.1053 15 18.072 15.05C18.0553 15.1 18.0387 15.15 18.022 15.2C18.372 15.15 18.8803 14.975 19.547 14.675C20.2303 14.3583 21.147 13.7417 22.297 12.825C22.9137 12.3417 23.472 11.875 23.972 11.425C24.472 10.9583 24.872 10.575 25.172 10.275C25.472 9.975 25.622 9.825 25.622 9.825C25.822 9.59167 26.0637 9.51667 26.347 9.6C26.4803 9.61667 26.5887 9.675 26.672 9.775C26.7553 9.85833 26.822 9.94167 26.872 10.025C26.9887 10.2583 26.997 10.5333 26.897 10.85C26.8137 11.15 26.6303 11.6417 26.347 12.325C26.247 12.5417 26.147 12.7583 26.047 12.975C25.9637 13.1917 25.8803 13.3917 25.797 13.575C25.7803 13.6417 25.7637 13.7 25.747 13.75C25.747 13.7833 25.7387 13.8167 25.722 13.85C26.0387 13.8 26.372 13.6667 26.722 13.45C27.0887 13.2167 27.4387 12.9583 27.772 12.675C28.122 12.3917 28.4137 12.15 28.647 11.95C28.8137 11.8 28.997 11.7333 29.197 11.75C29.397 11.7667 29.572 11.85 29.722 12C29.8553 12.1667 29.9137 12.35 29.897 12.55C29.897 12.75 29.8137 12.925 29.647 13.075C29.1303 13.525 28.597 13.95 28.047 14.35C27.5137 14.75 26.972 15.05 26.422 15.25C25.8887 15.4333 25.347 15.4583 24.797 15.325C24.5303 15.2083 24.3387 15.0417 24.222 14.825C24.122 14.5917 24.0887 14.3333 24.122 14.05C24.172 13.7667 24.272 13.4167 24.422 13C24.2387 13.1667 24.047 13.325 23.847 13.475C23.6637 13.625 23.4637 13.7917 23.247 13.975C20.947 15.7917 19.1553 16.7 17.872 16.7ZM38.1527 15.025C38.036 15.025 37.9277 15.0083 37.8277 14.975C37.511 14.9083 37.286 14.7167 37.1527 14.4C37.0527 14.1167 37.0777 13.8 37.2277 13.45C37.3943 13.1 37.611 12.7083 37.8777 12.275C37.9777 12.125 38.0693 11.975 38.1527 11.825C38.2527 11.6583 38.336 11.5083 38.4027 11.375C38.436 11.325 38.461 11.2833 38.4777 11.25C38.4943 11.2 38.511 11.1583 38.5277 11.125C38.0277 11.0417 37.4443 11.025 36.7777 11.075C36.1277 11.1083 35.3943 11.2333 34.5777 11.45C33.861 11.6333 33.086 11.875 32.2527 12.175C31.436 12.4583 30.5693 12.8 29.6527 13.2C29.4693 13.2667 29.286 13.2667 29.1027 13.2C28.9193 13.1333 28.786 13.0083 28.7027 12.825C28.6027 12.6417 28.5943 12.45 28.6777 12.25C28.761 12.0333 28.8943 11.8917 29.0777 11.825C30.011 11.4083 30.9027 11.05 31.7527 10.75C32.6193 10.4333 33.436 10.1833 34.2027 10C36.2527 9.48333 37.9277 9.4 39.2277 9.75C39.611 9.85 39.8777 10.0833 40.0277 10.45C40.1777 10.8167 40.1443 11.225 39.9277 11.675C39.711 12.125 39.4527 12.5917 39.1527 13.075C39.136 13.1083 39.111 13.15 39.0777 13.2C39.0443 13.25 39.011 13.3083 38.9777 13.375C39.361 13.2917 39.9277 13.125 40.6777 12.875C41.4277 12.625 42.461 12.2583 43.7777 11.775C43.961 11.7083 44.1443 11.725 44.3277 11.825C44.5277 11.9083 44.661 12.05 44.7277 12.25C44.811 12.4333 44.811 12.625 44.7277 12.825C44.6443 13.0083 44.4943 13.1417 44.2777 13.225C43.511 13.4917 42.811 13.7333 42.1777 13.95C41.5443 14.1667 40.9777 14.35 40.4777 14.5C39.811 14.7 39.3027 14.8417 38.9527 14.925C38.6027 14.9917 38.336 15.025 38.1527 15.025ZM46.2993 16.7C46.1827 16.7 46.066 16.6833 45.9493 16.65C45.8327 16.6333 45.716 16.6167 45.5993 16.6C45.2993 16.5167 45.091 16.3417 44.9743 16.075C44.8243 15.7417 44.8243 15.3417 44.9743 14.875C45.141 14.3917 45.4077 13.775 45.7743 13.025C45.841 12.8917 45.9077 12.7417 45.9743 12.575C46.0577 12.4083 46.1327 12.25 46.1993 12.1C45.9827 12.1833 45.7493 12.325 45.4993 12.525C45.266 12.7083 45.0243 12.9 44.7743 13.1C44.6077 13.2167 44.4243 13.2667 44.2243 13.25C44.0077 13.2167 43.8327 13.125 43.6993 12.975C43.5827 12.8083 43.541 12.625 43.5743 12.425C43.591 12.225 43.6743 12.05 43.8243 11.9C44.0577 11.7333 44.2993 11.55 44.5493 11.35C44.816 11.15 45.0827 10.9833 45.3493 10.85C46.0327 10.5 46.6577 10.4083 47.2243 10.575C47.491 10.625 47.691 10.7917 47.8243 11.075C47.9577 11.3417 47.9493 11.675 47.7993 12.075C47.666 12.475 47.4327 13.0167 47.0993 13.7C47.016 13.9 46.9243 14.1 46.8243 14.3C46.741 14.5 46.6577 14.6917 46.5743 14.875C46.5577 14.9417 46.5327 15 46.4993 15.05C46.4827 15.1 46.466 15.15 46.4493 15.2C46.7993 15.15 47.3077 14.975 47.9743 14.675C48.6577 14.3583 49.5743 13.7417 50.7243 12.825C51.341 12.3417 51.8993 11.875 52.3993 11.425C52.8993 10.9583 53.2993 10.575 53.5993 10.275C53.8993 9.975 54.0493 9.825 54.0493 9.825C54.2493 9.59167 54.491 9.51667 54.7743 9.6C54.9077 9.61667 55.016 9.675 55.0993 9.775C55.1827 9.85833 55.2493 9.94167 55.2993 10.025C55.416 10.2583 55.4243 10.5333 55.3243 10.85C55.241 11.15 55.0577 11.6417 54.7743 12.325C54.6743 12.5417 54.5743 12.7583 54.4743 12.975C54.391 13.1917 54.3077 13.3917 54.2243 13.575C54.2077 13.6417 54.191 13.7 54.1743 13.75C54.1743 13.7833 54.166 13.8167 54.1493 13.85C54.466 13.8 54.7993 13.6667 55.1493 13.45C55.516 13.2167 55.866 12.9583 56.1993 12.675C56.5493 12.3917 56.841 12.15 57.0743 11.95C57.241 11.8 57.4243 11.7333 57.6243 11.75C57.8243 11.7667 57.9993 11.85 58.1493 12C58.2827 12.1667 58.341 12.35 58.3243 12.55C58.3243 12.75 58.241 12.925 58.0743 13.075C57.5577 13.525 57.0243 13.95 56.4743 14.35C55.941 14.75 55.3993 15.05 54.8493 15.25C54.316 15.4333 53.7743 15.4583 53.2243 15.325C52.9577 15.2083 52.766 15.0417 52.6493 14.825C52.5493 14.5917 52.516 14.3333 52.5493 14.05C52.5993 13.7667 52.6993 13.4167 52.8493 13C52.666 13.1667 52.4743 13.325 52.2743 13.475C52.091 13.625 51.891 13.7917 51.6743 13.975C49.3743 15.7917 47.5827 16.7 46.2993 16.7ZM59.805 16.7C59.6883 16.7 59.5717 16.6833 59.455 16.65C59.3383 16.6333 59.2217 16.6167 59.105 16.6C58.805 16.5167 58.5967 16.3417 58.48 16.075C58.33 15.7417 58.33 15.3417 58.48 14.875C58.6467 14.3917 58.9133 13.775 59.28 13.025C59.3467 12.8917 59.4133 12.7417 59.48 12.575C59.5633 12.4083 59.6383 12.25 59.705 12.1C59.4883 12.1833 59.255 12.325 59.005 12.525C58.7717 12.7083 58.53 12.9 58.28 13.1C58.1133 13.2167 57.93 13.2667 57.73 13.25C57.5133 13.2167 57.3383 13.125 57.205 12.975C57.0883 12.8083 57.0467 12.625 57.08 12.425C57.0967 12.225 57.18 12.05 57.33 11.9C57.5633 11.7333 57.805 11.55 58.055 11.35C58.3217 11.15 58.5883 10.9833 58.855 10.85C59.5383 10.5 60.1633 10.4083 60.73 10.575C60.9967 10.625 61.1967 10.7917 61.33 11.075C61.4633 11.3417 61.455 11.675 61.305 12.075C61.1717 12.475 60.9383 13.0167 60.605 13.7C60.5217 13.9 60.43 14.1 60.33 14.3C60.2467 14.5 60.1633 14.6917 60.08 14.875C60.0633 14.9417 60.0383 15 60.005 15.05C59.9883 15.1 59.9717 15.15 59.955 15.2C60.305 15.15 60.8133 14.975 61.48 14.675C62.1633 14.3583 63.08 13.7417 64.23 12.825C64.8467 12.3417 65.405 11.875 65.905 11.425C66.405 10.9583 66.805 10.575 67.105 10.275C67.405 9.975 67.555 9.825 67.555 9.825C67.755 9.59167 67.9967 9.51667 68.28 9.6C68.4133 9.61667 68.5217 9.675 68.605 9.775C68.6883 9.85833 68.755 9.94167 68.805 10.025C68.9217 10.2583 68.93 10.5333 68.83 10.85C68.7467 11.15 68.5633 11.6417 68.28 12.325C68.18 12.5417 68.08 12.7583 67.98 12.975C67.8967 13.1917 67.8133 13.3917 67.73 13.575C67.7133 13.6417 67.6967 13.7 67.68 13.75C67.68 13.7833 67.6717 13.8167 67.655 13.85C67.9717 13.8 68.305 13.6667 68.655 13.45C69.0217 13.2167 69.3717 12.9583 69.705 12.675C70.055 12.3917 70.3467 12.15 70.58 11.95C70.7467 11.8 70.93 11.7333 71.13 11.75C71.33 11.7667 71.505 11.85 71.655 12C71.7883 12.1667 71.8467 12.35 71.83 12.55C71.83 12.75 71.7467 12.925 71.58 13.075C71.0633 13.525 70.53 13.95 69.98 14.35C69.4467 14.75 68.905 15.05 68.355 15.25C67.8217 15.4333 67.28 15.4583 66.73 15.325C66.4633 15.2083 66.2717 15.0417 66.155 14.825C66.055 14.5917 66.0217 14.3333 66.055 14.05C66.105 13.7667 66.205 13.4167 66.355 13C66.1717 13.1667 65.98 13.325 65.78 13.475C65.5967 13.625 65.3967 13.7917 65.18 13.975C62.88 15.7917 61.0883 16.7 59.805 16.7ZM74.4607 16.75C74.3773 16.75 74.294 16.7417 74.2107 16.725C74.1273 16.725 74.0357 16.7167 73.9357 16.7C73.7357 16.6333 73.569 16.4917 73.4357 16.275C73.369 16.1417 73.3357 15.9583 73.3357 15.725C73.3357 15.4917 73.4107 15.1083 73.5607 14.575C73.7107 14.0417 73.9523 13.25 74.2857 12.2C73.919 12.3333 73.494 12.4917 73.0107 12.675C72.544 12.8583 72.0607 13.0417 71.5607 13.225C71.3773 13.2917 71.194 13.2833 71.0107 13.2C70.8107 13.1 70.669 12.95 70.5857 12.75C70.519 12.5667 70.5357 12.3833 70.6357 12.2C70.719 12 70.8607 11.8583 71.0607 11.775C71.7773 11.5083 72.444 11.2583 73.0607 11.025C73.694 10.7917 74.2107 10.6 74.6107 10.45C75.0107 10.3 75.2107 10.225 75.2107 10.225C75.3773 10.1583 75.5357 10.15 75.6857 10.2C75.9023 10.25 76.0607 10.375 76.1607 10.575C76.244 10.725 76.269 10.8583 76.2357 10.975C76.219 11.0917 76.194 11.2167 76.1607 11.35C76.1273 11.4167 76.1023 11.4917 76.0857 11.575C76.069 11.6417 76.044 11.725 76.0107 11.825C75.894 12.1083 75.769 12.4583 75.6357 12.875C75.519 13.275 75.394 13.6833 75.2607 14.1C75.1773 14.3333 75.1107 14.5333 75.0607 14.7C75.0107 14.8667 74.969 15.0167 74.9357 15.15C75.2523 15.0833 75.7107 14.8917 76.3107 14.575C76.8273 14.2917 77.3773 13.9667 77.9607 13.6C78.5607 13.2167 79.169 12.8167 79.7857 12.4C79.919 12.3167 80.0523 12.2333 80.1857 12.15C80.3357 12.0667 80.469 11.975 80.5857 11.875C80.769 11.7583 80.9607 11.725 81.1607 11.775C81.3773 11.8083 81.544 11.9167 81.6607 12.1C81.7773 12.2667 81.8107 12.45 81.7607 12.65C81.7273 12.85 81.619 13.0083 81.4357 13.125C81.3023 13.225 81.1607 13.325 81.0107 13.425C80.8773 13.5083 80.7357 13.6 80.5857 13.7C79.9523 14.1167 79.3357 14.5167 78.7357 14.9C78.1357 15.2833 77.569 15.6167 77.0357 15.9C75.9523 16.4667 75.094 16.75 74.4607 16.75ZM86.9519 15.275C86.7519 15.275 86.5852 15.2167 86.4519 15.1C86.1852 14.8833 86.1102 14.6083 86.2269 14.275C86.2269 14.2583 86.2852 14.0583 86.4019 13.675C86.5352 13.2917 86.6852 12.8583 86.8519 12.375C86.9352 12.0917 87.0102 11.85 87.0769 11.65C87.1435 11.4333 87.2019 11.2417 87.2519 11.075C86.8019 11.2417 86.2519 11.45 85.6019 11.7C84.9519 11.9333 84.2685 12.1833 83.5519 12.45C82.8519 12.7167 82.1685 12.975 81.5019 13.225C81.3185 13.2917 81.1352 13.2833 80.9519 13.2C80.7519 13.1 80.6102 12.95 80.5269 12.75C80.4602 12.5667 80.4769 12.3833 80.5769 12.2C80.6602 12 80.8019 11.8583 81.0019 11.775C81.7519 11.5083 82.5269 11.2333 83.3269 10.95C84.1269 10.65 84.8685 10.375 85.5519 10.125C86.2352 9.85833 86.7935 9.64167 87.2269 9.475C87.6602 9.30833 87.8769 9.225 87.8769 9.225C87.9602 9.20833 88.0435 9.2 88.1269 9.2C88.2102 9.18333 88.2852 9.19167 88.3519 9.225C88.5852 9.25833 88.7519 9.39167 88.8519 9.625C88.9352 9.75833 88.9685 9.93333 88.9519 10.15C88.9519 10.35 88.9102 10.6417 88.8269 11.025C88.7769 11.2417 88.7102 11.4833 88.6269 11.75C88.5602 12 88.4685 12.2917 88.3519 12.625C88.3352 12.6917 88.3185 12.75 88.3019 12.8C88.2852 12.85 88.2685 12.9083 88.2519 12.975C88.9185 12.6083 89.7352 12.225 90.7019 11.825C90.8852 11.7417 91.0685 11.7417 91.2519 11.825C91.4519 11.8917 91.5852 12.0167 91.6519 12.2C91.7519 12.3833 91.7602 12.575 91.6769 12.775C91.5935 12.975 91.4602 13.1167 91.2769 13.2C90.5269 13.5333 89.8519 13.85 89.2519 14.15C88.6685 14.45 88.2019 14.6917 87.8519 14.875C87.5019 15.0583 87.3269 15.15 87.3269 15.15C87.2269 15.2333 87.1019 15.275 86.9519 15.275ZM99.9437 15.025C99.827 15.025 99.7187 15.0083 99.6187 14.975C99.302 14.9083 99.077 14.7167 98.9437 14.4C98.8437 14.1167 98.8687 13.8 99.0187 13.45C99.1853 13.1 99.402 12.7083 99.6687 12.275C99.7687 12.125 99.8603 11.975 99.9437 11.825C100.044 11.6583 100.127 11.5083 100.194 11.375C100.227 11.325 100.252 11.2833 100.269 11.25C100.285 11.2 100.302 11.1583 100.319 11.125C99.8187 11.0417 99.2353 11.025 98.5687 11.075C97.9187 11.1083 97.1853 11.2333 96.3687 11.45C95.652 11.6333 94.877 11.875 94.0437 12.175C93.227 12.4583 92.3603 12.8 91.4437 13.2C91.2603 13.2667 91.077 13.2667 90.8937 13.2C90.7103 13.1333 90.577 13.0083 90.4937 12.825C90.3937 12.6417 90.3853 12.45 90.4687 12.25C90.552 12.0333 90.6853 11.8917 90.8687 11.825C91.802 11.4083 92.6937 11.05 93.5437 10.75C94.4103 10.4333 95.227 10.1833 95.9937 10C98.0437 9.48333 99.7187 9.4 101.019 9.75C101.402 9.85 101.669 10.0833 101.819 10.45C101.969 10.8167 101.935 11.225 101.719 11.675C101.502 12.125 101.244 12.5917 100.944 13.075C100.927 13.1083 100.902 13.15 100.869 13.2C100.835 13.25 100.802 13.3083 100.769 13.375C101.152 13.2917 101.719 13.125 102.469 12.875C103.219 12.625 104.252 12.2583 105.569 11.775C105.752 11.7083 105.935 11.725 106.119 11.825C106.319 11.9083 106.452 12.05 106.519 12.25C106.602 12.4333 106.602 12.625 106.519 12.825C106.435 13.0083 106.285 13.1417 106.069 13.225C105.302 13.4917 104.602 13.7333 103.969 13.95C103.335 14.1667 102.769 14.35 102.269 14.5C101.602 14.7 101.094 14.8417 100.744 14.925C100.394 14.9917 100.127 15.025 99.9437 15.025ZM111.79 15.275C111.59 15.275 111.424 15.2167 111.29 15.1C111.024 14.8833 110.949 14.6083 111.065 14.275C111.065 14.2583 111.124 14.0583 111.24 13.675C111.374 13.2917 111.524 12.8583 111.69 12.375C111.774 12.0917 111.849 11.85 111.915 11.65C111.982 11.4333 112.04 11.2417 112.09 11.075C111.64 11.2417 111.09 11.45 110.44 11.7C109.79 11.9333 109.107 12.1833 108.39 12.45C107.69 12.7167 107.007 12.975 106.34 13.225C106.157 13.2917 105.974 13.2833 105.79 13.2C105.59 13.1 105.449 12.95 105.365 12.75C105.299 12.5667 105.315 12.3833 105.415 12.2C105.499 12 105.64 11.8583 105.84 11.775C106.59 11.5083 107.365 11.2333 108.165 10.95C108.965 10.65 109.707 10.375 110.39 10.125C111.074 9.85833 111.632 9.64167 112.065 9.475C112.499 9.30833 112.715 9.225 112.715 9.225C112.799 9.20833 112.882 9.2 112.965 9.2C113.049 9.18333 113.124 9.19167 113.19 9.225C113.424 9.25833 113.59 9.39167 113.69 9.625C113.774 9.75833 113.807 9.93333 113.79 10.15C113.79 10.35 113.749 10.6417 113.665 11.025C113.615 11.2417 113.549 11.4833 113.465 11.75C113.399 12 113.307 12.2917 113.19 12.625C113.174 12.6917 113.157 12.75 113.14 12.8C113.124 12.85 113.107 12.9083 113.09 12.975C113.757 12.6083 114.574 12.225 115.54 11.825C115.724 11.7417 115.907 11.7417 116.09 11.825C116.29 11.8917 116.424 12.0167 116.49 12.2C116.59 12.3833 116.599 12.575 116.515 12.775C116.432 12.975 116.299 13.1167 116.115 13.2C115.365 13.5333 114.69 13.85 114.09 14.15C113.507 14.45 113.04 14.6917 112.69 14.875C112.34 15.0583 112.165 15.15 112.165 15.15C112.065 15.2333 111.94 15.275 111.79 15.275ZM118.007 16.7C117.89 16.7 117.774 16.6833 117.657 16.65C117.54 16.6333 117.424 16.6167 117.307 16.6C117.007 16.5167 116.799 16.3417 116.682 16.075C116.532 15.7417 116.532 15.3417 116.682 14.875C116.849 14.3917 117.115 13.775 117.482 13.025C117.549 12.8917 117.615 12.7417 117.682 12.575C117.765 12.4083 117.84 12.25 117.907 12.1C117.69 12.1833 117.457 12.325 117.207 12.525C116.974 12.7083 116.732 12.9 116.482 13.1C116.315 13.2167 116.132 13.2667 115.932 13.25C115.715 13.2167 115.54 13.125 115.407 12.975C115.29 12.8083 115.249 12.625 115.282 12.425C115.299 12.225 115.382 12.05 115.532 11.9C115.765 11.7333 116.007 11.55 116.257 11.35C116.524 11.15 116.79 10.9833 117.057 10.85C117.74 10.5 118.365 10.4083 118.932 10.575C119.199 10.625 119.399 10.7917 119.532 11.075C119.665 11.3417 119.657 11.675 119.507 12.075C119.374 12.475 119.14 13.0167 118.807 13.7C118.724 13.9 118.632 14.1 118.532 14.3C118.449 14.5 118.365 14.6917 118.282 14.875C118.265 14.9417 118.24 15 118.207 15.05C118.19 15.1 118.174 15.15 118.157 15.2C118.507 15.15 119.015 14.975 119.682 14.675C120.365 14.3583 121.282 13.7417 122.432 12.825C123.049 12.3417 123.607 11.875 124.107 11.425C124.607 10.9583 125.007 10.575 125.307 10.275C125.607 9.975 125.757 9.825 125.757 9.825C125.957 9.59167 126.199 9.51667 126.482 9.6C126.615 9.61667 126.724 9.675 126.807 9.775C126.89 9.85833 126.957 9.94167 127.007 10.025C127.124 10.2583 127.132 10.5333 127.032 10.85C126.949 11.15 126.765 11.6417 126.482 12.325C126.382 12.5417 126.282 12.7583 126.182 12.975C126.099 13.1917 126.015 13.3917 125.932 13.575C125.915 13.6417 125.899 13.7 125.882 13.75C125.882 13.7833 125.874 13.8167 125.857 13.85C126.174 13.8 126.507 13.6667 126.857 13.45C127.224 13.2167 127.574 12.9583 127.907 12.675C128.257 12.3917 128.549 12.15 128.782 11.95C128.949 11.8 129.132 11.7333 129.332 11.75C129.532 11.7667 129.707 11.85 129.857 12C129.99 12.1667 130.049 12.35 130.032 12.55C130.032 12.75 129.949 12.925 129.782 13.075C129.265 13.525 128.732 13.95 128.182 14.35C127.649 14.75 127.107 15.05 126.557 15.25C126.024 15.4333 125.482 15.4583 124.932 15.325C124.665 15.2083 124.474 15.0417 124.357 14.825C124.257 14.5917 124.224 14.3333 124.257 14.05C124.307 13.7667 124.407 13.4167 124.557 13C124.374 13.1667 124.182 13.325 123.982 13.475C123.799 13.625 123.599 13.7917 123.382 13.975C121.082 15.7917 119.29 16.7 118.007 16.7ZM135.213 15.275C135.013 15.275 134.846 15.2167 134.713 15.1C134.446 14.8833 134.371 14.6083 134.488 14.275C134.488 14.2583 134.546 14.0583 134.663 13.675C134.796 13.2917 134.946 12.8583 135.113 12.375C135.196 12.0917 135.271 11.85 135.338 11.65C135.404 11.4333 135.463 11.2417 135.513 11.075C135.063 11.2417 134.513 11.45 133.863 11.7C133.213 11.9333 132.529 12.1833 131.813 12.45C131.113 12.7167 130.429 12.975 129.763 13.225C129.579 13.2917 129.396 13.2833 129.213 13.2C129.013 13.1 128.871 12.95 128.788 12.75C128.721 12.5667 128.738 12.3833 128.838 12.2C128.921 12 129.063 11.8583 129.263 11.775C130.013 11.5083 130.788 11.2333 131.588 10.95C132.388 10.65 133.129 10.375 133.813 10.125C134.496 9.85833 135.054 9.64167 135.488 9.475C135.921 9.30833 136.138 9.225 136.138 9.225C136.221 9.20833 136.304 9.2 136.388 9.2C136.471 9.18333 136.546 9.19167 136.613 9.225C136.846 9.25833 137.013 9.39167 137.113 9.625C137.196 9.75833 137.229 9.93333 137.213 10.15C137.213 10.35 137.171 10.6417 137.088 11.025C137.038 11.2417 136.971 11.4833 136.888 11.75C136.821 12 136.729 12.2917 136.613 12.625C136.596 12.6917 136.579 12.75 136.563 12.8C136.546 12.85 136.529 12.9083 136.513 12.975C137.179 12.6083 137.996 12.225 138.963 11.825C139.146 11.7417 139.329 11.7417 139.513 11.825C139.713 11.8917 139.846 12.0167 139.913 12.2C140.013 12.3833 140.021 12.575 139.938 12.775C139.854 12.975 139.721 13.1167 139.538 13.2C138.788 13.5333 138.113 13.85 137.513 14.15C136.929 14.45 136.463 14.6917 136.113 14.875C135.763 15.0583 135.588 15.15 135.588 15.15C135.488 15.2333 135.363 15.275 135.213 15.275ZM148.205 15.025C148.088 15.025 147.98 15.0083 147.88 14.975C147.563 14.9083 147.338 14.7167 147.205 14.4C147.105 14.1167 147.13 13.8 147.28 13.45C147.446 13.1 147.663 12.7083 147.93 12.275C148.03 12.125 148.121 11.975 148.205 11.825C148.305 11.6583 148.388 11.5083 148.455 11.375C148.488 11.325 148.513 11.2833 148.53 11.25C148.546 11.2 148.563 11.1583 148.58 11.125C148.08 11.0417 147.496 11.025 146.83 11.075C146.18 11.1083 145.446 11.2333 144.63 11.45C143.913 11.6333 143.138 11.875 142.305 12.175C141.488 12.4583 140.621 12.8 139.705 13.2C139.521 13.2667 139.338 13.2667 139.155 13.2C138.971 13.1333 138.838 13.0083 138.755 12.825C138.655 12.6417 138.646 12.45 138.73 12.25C138.813 12.0333 138.946 11.8917 139.13 11.825C140.063 11.4083 140.955 11.05 141.805 10.75C142.671 10.4333 143.488 10.1833 144.255 10C146.305 9.48333 147.98 9.4 149.28 9.75C149.663 9.85 149.93 10.0833 150.08 10.45C150.23 10.8167 150.196 11.225 149.98 11.675C149.763 12.125 149.505 12.5917 149.205 13.075C149.188 13.1083 149.163 13.15 149.13 13.2C149.096 13.25 149.063 13.3083 149.03 13.375C149.413 13.2917 149.98 13.125 150.73 12.875C151.48 12.625 152.513 12.2583 153.83 11.775C154.013 11.7083 154.196 11.725 154.38 11.825C154.58 11.9083 154.713 12.05 154.78 12.25C154.863 12.4333 154.863 12.625 154.78 12.825C154.696 13.0083 154.546 13.1417 154.33 13.225C153.563 13.4917 152.863 13.7333 152.23 13.95C151.596 14.1667 151.03 14.35 150.53 14.5C149.863 14.7 149.355 14.8417 149.005 14.925C148.655 14.9917 148.388 15.025 148.205 15.025Z" fill="#312E28"/>
<mask id="mask0_275_1505" style="mask-type:alpha" maskUnits="userSpaceOnUse" x="0" y="9" width="155" height="8">
<path d="M9.72532 15.025C9.60865 15.025 9.50032 15.0083 9.40032 14.975C9.08365 14.9083 8.85865 14.7167 8.72532 14.4C8.62532 14.1167 8.65032 13.8 8.80032 13.45C8.96698 13.1 9.18365 12.7083 9.45032 12.275C9.55032 12.125 9.64198 11.975 9.72532 11.825C9.82532 11.6583 9.90865 11.5083 9.97532 11.375C10.0087 11.325 10.0337 11.2833 10.0503 11.25C10.067 11.2 10.0837 11.1583 10.1003 11.125C9.60032 11.0417 9.01698 11.025 8.35032 11.075C7.70032 11.1083 6.96698 11.2333 6.15032 11.45C5.43365 11.6333 4.65865 11.875 3.82532 12.175C3.00865 12.4583 2.14198 12.8 1.22532 13.2C1.04198 13.2667 0.858651 13.2667 0.675317 13.2C0.491984 13.1333 0.358651 13.0083 0.275317 12.825C0.175317 12.6417 0.166984 12.45 0.250317 12.25C0.333651 12.0333 0.466984 11.8917 0.650317 11.825C1.58365 11.4083 2.47532 11.05 3.32532 10.75C4.19198 10.4333 5.00865 10.1833 5.77532 10C7.82532 9.48333 9.50032 9.4 10.8003 9.75C11.1837 9.85 11.4503 10.0833 11.6003 10.45C11.7503 10.8167 11.717 11.225 11.5003 11.675C11.2837 12.125 11.0253 12.5917 10.7253 13.075C10.7087 13.1083 10.6837 13.15 10.6503 13.2C10.617 13.25 10.5837 13.3083 10.5503 13.375C10.9337 13.2917 11.5003 13.125 12.2503 12.875C13.0003 12.625 14.0337 12.2583 15.3503 11.775C15.5337 11.7083 15.717 11.725 15.9003 11.825C16.1003 11.9083 16.2337 12.05 16.3003 12.25C16.3837 12.4333 16.3837 12.625 16.3003 12.825C16.217 13.0083 16.067 13.1417 15.8503 13.225C15.0837 13.4917 14.3837 13.7333 13.7503 13.95C13.117 14.1667 12.5503 14.35 12.0503 14.5C11.3837 14.7 10.8753 14.8417 10.5253 14.925C10.1753 14.9917 9.90865 15.025 9.72532 15.025ZM17.872 16.7C17.7553 16.7 17.6387 16.6833 17.522 16.65C17.4053 16.6333 17.2887 16.6167 17.172 16.6C16.872 16.5167 16.6637 16.3417 16.547 16.075C16.397 15.7417 16.397 15.3417 16.547 14.875C16.7137 14.3917 16.9803 13.775 17.347 13.025C17.4137 12.8917 17.4803 12.7417 17.547 12.575C17.6303 12.4083 17.7053 12.25 17.772 12.1C17.5553 12.1833 17.322 12.325 17.072 12.525C16.8387 12.7083 16.597 12.9 16.347 13.1C16.1803 13.2167 15.997 13.2667 15.797 13.25C15.5803 13.2167 15.4053 13.125 15.272 12.975C15.1553 12.8083 15.1137 12.625 15.147 12.425C15.1637 12.225 15.247 12.05 15.397 11.9C15.6303 11.7333 15.872 11.55 16.122 11.35C16.3887 11.15 16.6553 10.9833 16.922 10.85C17.6053 10.5 18.2303 10.4083 18.797 10.575C19.0637 10.625 19.2637 10.7917 19.397 11.075C19.5303 11.3417 19.522 11.675 19.372 12.075C19.2387 12.475 19.0053 13.0167 18.672 13.7C18.5887 13.9 18.497 14.1 18.397 14.3C18.3137 14.5 18.2303 14.6917 18.147 14.875C18.1303 14.9417 18.1053 15 18.072 15.05C18.0553 15.1 18.0387 15.15 18.022 15.2C18.372 15.15 18.8803 14.975 19.547 14.675C20.2303 14.3583 21.147 13.7417 22.297 12.825C22.9137 12.3417 23.472 11.875 23.972 11.425C24.472 10.9583 24.872 10.575 25.172 10.275C25.472 9.975 25.622 9.825 25.622 9.825C25.822 9.59167 26.0637 9.51667 26.347 9.6C26.4803 9.61667 26.5887 9.675 26.672 9.775C26.7553 9.85833 26.822 9.94167 26.872 10.025C26.9887 10.2583 26.997 10.5333 26.897 10.85C26.8137 11.15 26.6303 11.6417 26.347 12.325C26.247 12.5417 26.147 12.7583 26.047 12.975C25.9637 13.1917 25.8803 13.3917 25.797 13.575C25.7803 13.6417 25.7637 13.7 25.747 13.75C25.747 13.7833 25.7387 13.8167 25.722 13.85C26.0387 13.8 26.372 13.6667 26.722 13.45C27.0887 13.2167 27.4387 12.9583 27.772 12.675C28.122 12.3917 28.4137 12.15 28.647 11.95C28.8137 11.8 28.997 11.7333 29.197 11.75C29.397 11.7667 29.572 11.85 29.722 12C29.8553 12.1667 29.9137 12.35 29.897 12.55C29.897 12.75 29.8137 12.925 29.647 13.075C29.1303 13.525 28.597 13.95 28.047 14.35C27.5137 14.75 26.972 15.05 26.422 15.25C25.8887 15.4333 25.347 15.4583 24.797 15.325C24.5303 15.2083 24.3387 15.0417 24.222 14.825C24.122 14.5917 24.0887 14.3333 24.122 14.05C24.172 13.7667 24.272 13.4167 24.422 13C24.2387 13.1667 24.047 13.325 23.847 13.475C23.6637 13.625 23.4637 13.7917 23.247 13.975C20.947 15.7917 19.1553 16.7 17.872 16.7ZM38.1527 15.025C38.036 15.025 37.9277 15.0083 37.8277 14.975C37.511 14.9083 37.286 14.7167 37.1527 14.4C37.0527 14.1167 37.0777 13.8 37.2277 13.45C37.3943 13.1 37.611 12.7083 37.8777 12.275C37.9777 12.125 38.0693 11.975 38.1527 11.825C38.2527 11.6583 38.336 11.5083 38.4027 11.375C38.436 11.325 38.461 11.2833 38.4777 11.25C38.4943 11.2 38.511 11.1583 38.5277 11.125C38.0277 11.0417 37.4443 11.025 36.7777 11.075C36.1277 11.1083 35.3943 11.2333 34.5777 11.45C33.861 11.6333 33.086 11.875 32.2527 12.175C31.436 12.4583 30.5693 12.8 29.6527 13.2C29.4693 13.2667 29.286 13.2667 29.1027 13.2C28.9193 13.1333 28.786 13.0083 28.7027 12.825C28.6027 12.6417 28.5943 12.45 28.6777 12.25C28.761 12.0333 28.8943 11.8917 29.0777 11.825C30.011 11.4083 30.9027 11.05 31.7527 10.75C32.6193 10.4333 33.436 10.1833 34.2027 10C36.2527 9.48333 37.9277 9.4 39.2277 9.75C39.611 9.85 39.8777 10.0833 40.0277 10.45C40.1777 10.8167 40.1443 11.225 39.9277 11.675C39.711 12.125 39.4527 12.5917 39.1527 13.075C39.136 13.1083 39.111 13.15 39.0777 13.2C39.0443 13.25 39.011 13.3083 38.9777 13.375C39.361 13.2917 39.9277 13.125 40.6777 12.875C41.4277 12.625 42.461 12.2583 43.7777 11.775C43.961 11.7083 44.1443 11.725 44.3277 11.825C44.5277 11.9083 44.661 12.05 44.7277 12.25C44.811 12.4333 44.811 12.625 44.7277 12.825C44.6443 13.0083 44.4943 13.1417 44.2777 13.225C43.511 13.4917 42.811 13.7333 42.1777 13.95C41.5443 14.1667 40.9777 14.35 40.4777 14.5C39.811 14.7 39.3027 14.8417 38.9527 14.925C38.6027 14.9917 38.336 15.025 38.1527 15.025ZM46.2993 16.7C46.1827 16.7 46.066 16.6833 45.9493 16.65C45.8327 16.6333 45.716 16.6167 45.5993 16.6C45.2993 16.5167 45.091 16.3417 44.9743 16.075C44.8243 15.7417 44.8243 15.3417 44.9743 14.875C45.141 14.3917 45.4077 13.775 45.7743 13.025C45.841 12.8917 45.9077 12.7417 45.9743 12.575C46.0577 12.4083 46.1327 12.25 46.1993 12.1C45.9827 12.1833 45.7493 12.325 45.4993 12.525C45.266 12.7083 45.0243 12.9 44.7743 13.1C44.6077 13.2167 44.4243 13.2667 44.2243 13.25C44.0077 13.2167 43.8327 13.125 43.6993 12.975C43.5827 12.8083 43.541 12.625 43.5743 12.425C43.591 12.225 43.6743 12.05 43.8243 11.9C44.0577 11.7333 44.2993 11.55 44.5493 11.35C44.816 11.15 45.0827 10.9833 45.3493 10.85C46.0327 10.5 46.6577 10.4083 47.2243 10.575C47.491 10.625 47.691 10.7917 47.8243 11.075C47.9577 11.3417 47.9493 11.675 47.7993 12.075C47.666 12.475 47.4327 13.0167 47.0993 13.7C47.016 13.9 46.9243 14.1 46.8243 14.3C46.741 14.5 46.6577 14.6917 46.5743 14.875C46.5577 14.9417 46.5327 15 46.4993 15.05C46.4827 15.1 46.466 15.15 46.4493 15.2C46.7993 15.15 47.3077 14.975 47.9743 14.675C48.6577 14.3583 49.5743 13.7417 50.7243 12.825C51.341 12.3417 51.8993 11.875 52.3993 11.425C52.8993 10.9583 53.2993 10.575 53.5993 10.275C53.8993 9.975 54.0493 9.825 54.0493 9.825C54.2493 9.59167 54.491 9.51667 54.7743 9.6C54.9077 9.61667 55.016 9.675 55.0993 9.775C55.1827 9.85833 55.2493 9.94167 55.2993 10.025C55.416 10.2583 55.4243 10.5333 55.3243 10.85C55.241 11.15 55.0577 11.6417 54.7743 12.325C54.6743 12.5417 54.5743 12.7583 54.4743 12.975C54.391 13.1917 54.3077 13.3917 54.2243 13.575C54.2077 13.6417 54.191 13.7 54.1743 13.75C54.1743 13.7833 54.166 13.8167 54.1493 13.85C54.466 13.8 54.7993 13.6667 55.1493 13.45C55.516 13.2167 55.866 12.9583 56.1993 12.675C56.5493 12.3917 56.841 12.15 57.0743 11.95C57.241 11.8 57.4243 11.7333 57.6243 11.75C57.8243 11.7667 57.9993 11.85 58.1493 12C58.2827 12.1667 58.341 12.35 58.3243 12.55C58.3243 12.75 58.241 12.925 58.0743 13.075C57.5577 13.525 57.0243 13.95 56.4743 14.35C55.941 14.75 55.3993 15.05 54.8493 15.25C54.316 15.4333 53.7743 15.4583 53.2243 15.325C52.9577 15.2083 52.766 15.0417 52.6493 14.825C52.5493 14.5917 52.516 14.3333 52.5493 14.05C52.5993 13.7667 52.6993 13.4167 52.8493 13C52.666 13.1667 52.4743 13.325 52.2743 13.475C52.091 13.625 51.891 13.7917 51.6743 13.975C49.3743 15.7917 47.5827 16.7 46.2993 16.7ZM59.805 16.7C59.6883 16.7 59.5717 16.6833 59.455 16.65C59.3383 16.6333 59.2217 16.6167 59.105 16.6C58.805 16.5167 58.5967 16.3417 58.48 16.075C58.33 15.7417 58.33 15.3417 58.48 14.875C58.6467 14.3917 58.9133 13.775 59.28 13.025C59.3467 12.8917 59.4133 12.7417 59.48 12.575C59.5633 12.4083 59.6383 12.25 59.705 12.1C59.4883 12.1833 59.255 12.325 59.005 12.525C58.7717 12.7083 58.53 12.9 58.28 13.1C58.1133 13.2167 57.93 13.2667 57.73 13.25C57.5133 13.2167 57.3383 13.125 57.205 12.975C57.0883 12.8083 57.0467 12.625 57.08 12.425C57.0967 12.225 57.18 12.05 57.33 11.9C57.5633 11.7333 57.805 11.55 58.055 11.35C58.3217 11.15 58.5883 10.9833 58.855 10.85C59.5383 10.5 60.1633 10.4083 60.73 10.575C60.9967 10.625 61.1967 10.7917 61.33 11.075C61.4633 11.3417 61.455 11.675 61.305 12.075C61.1717 12.475 60.9383 13.0167 60.605 13.7C60.5217 13.9 60.43 14.1 60.33 14.3C60.2467 14.5 60.1633 14.6917 60.08 14.875C60.0633 14.9417 60.0383 15 60.005 15.05C59.9883 15.1 59.9717 15.15 59.955 15.2C60.305 15.15 60.8133 14.975 61.48 14.675C62.1633 14.3583 63.08 13.7417 64.23 12.825C64.8467 12.3417 65.405 11.875 65.905 11.425C66.405 10.9583 66.805 10.575 67.105 10.275C67.405 9.975 67.555 9.825 67.555 9.825C67.755 9.59167 67.9967 9.51667 68.28 9.6C68.4133 9.61667 68.5217 9.675 68.605 9.775C68.6883 9.85833 68.755 9.94167 68.805 10.025C68.9217 10.2583 68.93 10.5333 68.83 10.85C68.7467 11.15 68.5633 11.6417 68.28 12.325C68.18 12.5417 68.08 12.7583 67.98 12.975C67.8967 13.1917 67.8133 13.3917 67.73 13.575C67.7133 13.6417 67.6967 13.7 67.68 13.75C67.68 13.7833 67.6717 13.8167 67.655 13.85C67.9717 13.8 68.305 13.6667 68.655 13.45C69.0217 13.2167 69.3717 12.9583 69.705 12.675C70.055 12.3917 70.3467 12.15 70.58 11.95C70.7467 11.8 70.93 11.7333 71.13 11.75C71.33 11.7667 71.505 11.85 71.655 12C71.7883 12.1667 71.8467 12.35 71.83 12.55C71.83 12.75 71.7467 12.925 71.58 13.075C71.0633 13.525 70.53 13.95 69.98 14.35C69.4467 14.75 68.905 15.05 68.355 15.25C67.8217 15.4333 67.28 15.4583 66.73 15.325C66.4633 15.2083 66.2717 15.0417 66.155 14.825C66.055 14.5917 66.0217 14.3333 66.055 14.05C66.105 13.7667 66.205 13.4167 66.355 13C66.1717 13.1667 65.98 13.325 65.78 13.475C65.5967 13.625 65.3967 13.7917 65.18 13.975C62.88 15.7917 61.0883 16.7 59.805 16.7ZM74.4607 16.75C74.3773 16.75 74.294 16.7417 74.2107 16.725C74.1273 16.725 74.0357 16.7167 73.9357 16.7C73.7357 16.6333 73.569 16.4917 73.4357 16.275C73.369 16.1417 73.3357 15.9583 73.3357 15.725C73.3357 15.4917 73.4107 15.1083 73.5607 14.575C73.7107 14.0417 73.9523 13.25 74.2857 12.2C73.919 12.3333 73.494 12.4917 73.0107 12.675C72.544 12.8583 72.0607 13.0417 71.5607 13.225C71.3773 13.2917 71.194 13.2833 71.0107 13.2C70.8107 13.1 70.669 12.95 70.5857 12.75C70.519 12.5667 70.5357 12.3833 70.6357 12.2C70.719 12 70.8607 11.8583 71.0607 11.775C71.7773 11.5083 72.444 11.2583 73.0607 11.025C73.694 10.7917 74.2107 10.6 74.6107 10.45C75.0107 10.3 75.2107 10.225 75.2107 10.225C75.3773 10.1583 75.5357 10.15 75.6857 10.2C75.9023 10.25 76.0607 10.375 76.1607 10.575C76.244 10.725 76.269 10.8583 76.2357 10.975C76.219 11.0917 76.194 11.2167 76.1607 11.35C76.1273 11.4167 76.1023 11.4917 76.0857 11.575C76.069 11.6417 76.044 11.725 76.0107 11.825C75.894 12.1083 75.769 12.4583 75.6357 12.875C75.519 13.275 75.394 13.6833 75.2607 14.1C75.1773 14.3333 75.1107 14.5333 75.0607 14.7C75.0107 14.8667 74.969 15.0167 74.9357 15.15C75.2523 15.0833 75.7107 14.8917 76.3107 14.575C76.8273 14.2917 77.3773 13.9667 77.9607 13.6C78.5607 13.2167 79.169 12.8167 79.7857 12.4C79.919 12.3167 80.0523 12.2333 80.1857 12.15C80.3357 12.0667 80.469 11.975 80.5857 11.875C80.769 11.7583 80.9607 11.725 81.1607 11.775C81.3773 11.8083 81.544 11.9167 81.6607 12.1C81.7773 12.2667 81.8107 12.45 81.7607 12.65C81.7273 12.85 81.619 13.0083 81.4357 13.125C81.3023 13.225 81.1607 13.325 81.0107 13.425C80.8773 13.5083 80.7357 13.6 80.5857 13.7C79.9523 14.1167 79.3357 14.5167 78.7357 14.9C78.1357 15.2833 77.569 15.6167 77.0357 15.9C75.9523 16.4667 75.094 16.75 74.4607 16.75ZM86.9519 15.275C86.7519 15.275 86.5852 15.2167 86.4519 15.1C86.1852 14.8833 86.1102 14.6083 86.2269 14.275C86.2269 14.2583 86.2852 14.0583 86.4019 13.675C86.5352 13.2917 86.6852 12.8583 86.8519 12.375C86.9352 12.0917 87.0102 11.85 87.0769 11.65C87.1435 11.4333 87.2019 11.2417 87.2519 11.075C86.8019 11.2417 86.2519 11.45 85.6019 11.7C84.9519 11.9333 84.2685 12.1833 83.5519 12.45C82.8519 12.7167 82.1685 12.975 81.5019 13.225C81.3185 13.2917 81.1352 13.2833 80.9519 13.2C80.7519 13.1 80.6102 12.95 80.5269 12.75C80.4602 12.5667 80.4769 12.3833 80.5769 12.2C80.6602 12 80.8019 11.8583 81.0019 11.775C81.7519 11.5083 82.5269 11.2333 83.3269 10.95C84.1269 10.65 84.8685 10.375 85.5519 10.125C86.2352 9.85833 86.7935 9.64167 87.2269 9.475C87.6602 9.30833 87.8769 9.225 87.8769 9.225C87.9602 9.20833 88.0435 9.2 88.1269 9.2C88.2102 9.18333 88.2852 9.19167 88.3519 9.225C88.5852 9.25833 88.7519 9.39167 88.8519 9.625C88.9352 9.75833 88.9685 9.93333 88.9519 10.15C88.9519 10.35 88.9102 10.6417 88.8269 11.025C88.7769 11.2417 88.7102 11.4833 88.6269 11.75C88.5602 12 88.4685 12.2917 88.3519 12.625C88.3352 12.6917 88.3185 12.75 88.3019 12.8C88.2852 12.85 88.2685 12.9083 88.2519 12.975C88.9185 12.6083 89.7352 12.225 90.7019 11.825C90.8852 11.7417 91.0685 11.7417 91.2519 11.825C91.4519 11.8917 91.5852 12.0167 91.6519 12.2C91.7519 12.3833 91.7602 12.575 91.6769 12.775C91.5935 12.975 91.4602 13.1167 91.2769 13.2C90.5269 13.5333 89.8519 13.85 89.2519 14.15C88.6685 14.45 88.2019 14.6917 87.8519 14.875C87.5019 15.0583 87.3269 15.15 87.3269 15.15C87.2269 15.2333 87.1019 15.275 86.9519 15.275ZM99.9437 15.025C99.827 15.025 99.7187 15.0083 99.6187 14.975C99.302 14.9083 99.077 14.7167 98.9437 14.4C98.8437 14.1167 98.8687 13.8 99.0187 13.45C99.1853 13.1 99.402 12.7083 99.6687 12.275C99.7687 12.125 99.8603 11.975 99.9437 11.825C100.044 11.6583 100.127 11.5083 100.194 11.375C100.227 11.325 100.252 11.2833 100.269 11.25C100.285 11.2 100.302 11.1583 100.319 11.125C99.8187 11.0417 99.2353 11.025 98.5687 11.075C97.9187 11.1083 97.1853 11.2333 96.3687 11.45C95.652 11.6333 94.877 11.875 94.0437 12.175C93.227 12.4583 92.3603 12.8 91.4437 13.2C91.2603 13.2667 91.077 13.2667 90.8937 13.2C90.7103 13.1333 90.577 13.0083 90.4937 12.825C90.3937 12.6417 90.3853 12.45 90.4687 12.25C90.552 12.0333 90.6853 11.8917 90.8687 11.825C91.802 11.4083 92.6937 11.05 93.5437 10.75C94.4103 10.4333 95.227 10.1833 95.9937 10C98.0437 9.48333 99.7187 9.4 101.019 9.75C101.402 9.85 101.669 10.0833 101.819 10.45C101.969 10.8167 101.935 11.225 101.719 11.675C101.502 12.125 101.244 12.5917 100.944 13.075C100.927 13.1083 100.902 13.15 100.869 13.2C100.835 13.25 100.802 13.3083 100.769 13.375C101.152 13.2917 101.719 13.125 102.469 12.875C103.219 12.625 104.252 12.2583 105.569 11.775C105.752 11.7083 105.935 11.725 106.119 11.825C106.319 11.9083 106.452 12.05 106.519 12.25C106.602 12.4333 106.602 12.625 106.519 12.825C106.435 13.0083 106.285 13.1417 106.069 13.225C105.302 13.4917 104.602 13.7333 103.969 13.95C103.335 14.1667 102.769 14.35 102.269 14.5C101.602 14.7 101.094 14.8417 100.744 14.925C100.394 14.9917 100.127 15.025 99.9437 15.025ZM111.79 15.275C111.59 15.275 111.424 15.2167 111.29 15.1C111.024 14.8833 110.949 14.6083 111.065 14.275C111.065 14.2583 111.124 14.0583 111.24 13.675C111.374 13.2917 111.524 12.8583 111.69 12.375C111.774 12.0917 111.849 11.85 111.915 11.65C111.982 11.4333 112.04 11.2417 112.09 11.075C111.64 11.2417 111.09 11.45 110.44 11.7C109.79 11.9333 109.107 12.1833 108.39 12.45C107.69 12.7167 107.007 12.975 106.34 13.225C106.157 13.2917 105.974 13.2833 105.79 13.2C105.59 13.1 105.449 12.95 105.365 12.75C105.299 12.5667 105.315 12.3833 105.415 12.2C105.499 12 105.64 11.8583 105.84 11.775C106.59 11.5083 107.365 11.2333 108.165 10.95C108.965 10.65 109.707 10.375 110.39 10.125C111.074 9.85833 111.632 9.64167 112.065 9.475C112.499 9.30833 112.715 9.225 112.715 9.225C112.799 9.20833 112.882 9.2 112.965 9.2C113.049 9.18333 113.124 9.19167 113.19 9.225C113.424 9.25833 113.59 9.39167 113.69 9.625C113.774 9.75833 113.807 9.93333 113.79 10.15C113.79 10.35 113.749 10.6417 113.665 11.025C113.615 11.2417 113.549 11.4833 113.465 11.75C113.399 12 113.307 12.2917 113.19 12.625C113.174 12.6917 113.157 12.75 113.14 12.8C113.124 12.85 113.107 12.9083 113.09 12.975C113.757 12.6083 114.574 12.225 115.54 11.825C115.724 11.7417 115.907 11.7417 116.09 11.825C116.29 11.8917 116.424 12.0167 116.49 12.2C116.59 12.3833 116.599 12.575 116.515 12.775C116.432 12.975 116.299 13.1167 116.115 13.2C115.365 13.5333 114.69 13.85 114.09 14.15C113.507 14.45 113.04 14.6917 112.69 14.875C112.34 15.0583 112.165 15.15 112.165 15.15C112.065 15.2333 111.94 15.275 111.79 15.275ZM118.007 16.7C117.89 16.7 117.774 16.6833 117.657 16.65C117.54 16.6333 117.424 16.6167 117.307 16.6C117.007 16.5167 116.799 16.3417 116.682 16.075C116.532 15.7417 116.532 15.3417 116.682 14.875C116.849 14.3917 117.115 13.775 117.482 13.025C117.549 12.8917 117.615 12.7417 117.682 12.575C117.765 12.4083 117.84 12.25 117.907 12.1C117.69 12.1833 117.457 12.325 117.207 12.525C116.974 12.7083 116.732 12.9 116.482 13.1C116.315 13.2167 116.132 13.2667 115.932 13.25C115.715 13.2167 115.54 13.125 115.407 12.975C115.29 12.8083 115.249 12.625 115.282 12.425C115.299 12.225 115.382 12.05 115.532 11.9C115.765 11.7333 116.007 11.55 116.257 11.35C116.524 11.15 116.79 10.9833 117.057 10.85C117.74 10.5 118.365 10.4083 118.932 10.575C119.199 10.625 119.399 10.7917 119.532 11.075C119.665 11.3417 119.657 11.675 119.507 12.075C119.374 12.475 119.14 13.0167 118.807 13.7C118.724 13.9 118.632 14.1 118.532 14.3C118.449 14.5 118.365 14.6917 118.282 14.875C118.265 14.9417 118.24 15 118.207 15.05C118.19 15.1 118.174 15.15 118.157 15.2C118.507 15.15 119.015 14.975 119.682 14.675C120.365 14.3583 121.282 13.7417 122.432 12.825C123.049 12.3417 123.607 11.875 124.107 11.425C124.607 10.9583 125.007 10.575 125.307 10.275C125.607 9.975 125.757 9.825 125.757 9.825C125.957 9.59167 126.199 9.51667 126.482 9.6C126.615 9.61667 126.724 9.675 126.807 9.775C126.89 9.85833 126.957 9.94167 127.007 10.025C127.124 10.2583 127.132 10.5333 127.032 10.85C126.949 11.15 126.765 11.6417 126.482 12.325C126.382 12.5417 126.282 12.7583 126.182 12.975C126.099 13.1917 126.015 13.3917 125.932 13.575C125.915 13.6417 125.899 13.7 125.882 13.75C125.882 13.7833 125.874 13.8167 125.857 13.85C126.174 13.8 126.507 13.6667 126.857 13.45C127.224 13.2167 127.574 12.9583 127.907 12.675C128.257 12.3917 128.549 12.15 128.782 11.95C128.949 11.8 129.132 11.7333 129.332 11.75C129.532 11.7667 129.707 11.85 129.857 12C129.99 12.1667 130.049 12.35 130.032 12.55C130.032 12.75 129.949 12.925 129.782 13.075C129.265 13.525 128.732 13.95 128.182 14.35C127.649 14.75 127.107 15.05 126.557 15.25C126.024 15.4333 125.482 15.4583 124.932 15.325C124.665 15.2083 124.474 15.0417 124.357 14.825C124.257 14.5917 124.224 14.3333 124.257 14.05C124.307 13.7667 124.407 13.4167 124.557 13C124.374 13.1667 124.182 13.325 123.982 13.475C123.799 13.625 123.599 13.7917 123.382 13.975C121.082 15.7917 119.29 16.7 118.007 16.7ZM135.213 15.275C135.013 15.275 134.846 15.2167 134.713 15.1C134.446 14.8833 134.371 14.6083 134.488 14.275C134.488 14.2583 134.546 14.0583 134.663 13.675C134.796 13.2917 134.946 12.8583 135.113 12.375C135.196 12.0917 135.271 11.85 135.338 11.65C135.404 11.4333 135.463 11.2417 135.513 11.075C135.063 11.2417 134.513 11.45 133.863 11.7C133.213 11.9333 132.529 12.1833 131.813 12.45C131.113 12.7167 130.429 12.975 129.763 13.225C129.579 13.2917 129.396 13.2833 129.213 13.2C129.013 13.1 128.871 12.95 128.788 12.75C128.721 12.5667 128.738 12.3833 128.838 12.2C128.921 12 129.063 11.8583 129.263 11.775C130.013 11.5083 130.788 11.2333 131.588 10.95C132.388 10.65 133.129 10.375 133.813 10.125C134.496 9.85833 135.054 9.64167 135.488 9.475C135.921 9.30833 136.138 9.225 136.138 9.225C136.221 9.20833 136.304 9.2 136.388 9.2C136.471 9.18333 136.546 9.19167 136.613 9.225C136.846 9.25833 137.013 9.39167 137.113 9.625C137.196 9.75833 137.229 9.93333 137.213 10.15C137.213 10.35 137.171 10.6417 137.088 11.025C137.038 11.2417 136.971 11.4833 136.888 11.75C136.821 12 136.729 12.2917 136.613 12.625C136.596 12.6917 136.579 12.75 136.563 12.8C136.546 12.85 136.529 12.9083 136.513 12.975C137.179 12.6083 137.996 12.225 138.963 11.825C139.146 11.7417 139.329 11.7417 139.513 11.825C139.713 11.8917 139.846 12.0167 139.913 12.2C140.013 12.3833 140.021 12.575 139.938 12.775C139.854 12.975 139.721 13.1167 139.538 13.2C138.788 13.5333 138.113 13.85 137.513 14.15C136.929 14.45 136.463 14.6917 136.113 14.875C135.763 15.0583 135.588 15.15 135.588 15.15C135.488 15.2333 135.363 15.275 135.213 15.275ZM148.205 15.025C148.088 15.025 147.98 15.0083 147.88 14.975C147.563 14.9083 147.338 14.7167 147.205 14.4C147.105 14.1167 147.13 13.8 147.28 13.45C147.446 13.1 147.663 12.7083 147.93 12.275C148.03 12.125 148.121 11.975 148.205 11.825C148.305 11.6583 148.388 11.5083 148.455 11.375C148.488 11.325 148.513 11.2833 148.53 11.25C148.546 11.2 148.563 11.1583 148.58 11.125C148.08 11.0417 147.496 11.025 146.83 11.075C146.18 11.1083 145.446 11.2333 144.63 11.45C143.913 11.6333 143.138 11.875 142.305 12.175C141.488 12.4583 140.621 12.8 139.705 13.2C139.521 13.2667 139.338 13.2667 139.155 13.2C138.971 13.1333 138.838 13.0083 138.755 12.825C138.655 12.6417 138.646 12.45 138.73 12.25C138.813 12.0333 138.946 11.8917 139.13 11.825C140.063 11.4083 140.955 11.05 141.805 10.75C142.671 10.4333 143.488 10.1833 144.255 10C146.305 9.48333 147.98 9.4 149.28 9.75C149.663 9.85 149.93 10.0833 150.08 10.45C150.23 10.8167 150.196 11.225 149.98 11.675C149.763 12.125 149.505 12.5917 149.205 13.075C149.188 13.1083 149.163 13.15 149.13 13.2C149.096 13.25 149.063 13.3083 149.03 13.375C149.413 13.2917 149.98 13.125 150.73 12.875C151.48 12.625 152.513 12.2583 153.83 11.775C154.013 11.7083 154.196 11.725 154.38 11.825C154.58 11.9083 154.713 12.05 154.78 12.25C154.863 12.4333 154.863 12.625 154.78 12.825C154.696 13.0083 154.546 13.1417 154.33 13.225C153.563 13.4917 152.863 13.7333 152.23 13.95C151.596 14.1667 151.03 14.35 150.53 14.5C149.863 14.7 149.355 14.8417 149.005 14.925C148.655 14.9917 148.388 15.025 148.205 15.025Z" fill="#61646B"/>
</mask>
<g mask="url(#mask0_275_1505)">
<path d="M72.9503 1H162.95V22H72.9503V1Z" fill="#CAC7C1"/>
</g>
</svg>
